# xmcd CD database file
#
# Track frame offsets:
#	150
#	35157
#	61467
#	78522
#	112935
#	138620
#	175830
#	198525
#	213545
#	231782
#	258170
#
# Disc length: 3794 seconds
#
# Revision: 1
# Processed by: cddbd v1.5.2PL0 Copyright (c) Steve Scherf et al.
# Submitted via: CDex 1.70beta2
#
DISCID=9f0ed00b
DTITLE=Swinging Ladies - Take Two
DYEAR=1996
DGENRE=Jazz
TTITLE0=Caravan
TTITLE1=Time After Time
TTITLE2=Trouble Shooter
TTITLE3=Dirta Butt Blues
TTITLE4=Friends Again
TTITLE5=Turn Out The Stars
TTITLE6=One For Amos
TTITLE7=Lepprechaun Waltz
TTITLE8=Mamacita
TTITLE9=I Fall In Love Too Easily
TTITLE10=Work Song
EXTD=YEAR: 1996
EXTT0=
EXTT1=
EXTT2=
EXTT3=
EXTT4=
EXTT5=
EXTT6=
EXTT7=
EXTT8=
EXTT9=
EXTT10=
PLAYORDER=
